<svg width="42" height="54" viewBox="0 0 42 54" xmlns="http://www.w3.org/2000/svg">
<path d="M2.09146 32.3475C3.14737 30.7123 4.55664 29.2575 5.80462 27.7653C7.19576 26.102 8.59528 24.4459 10.0032 22.7969C11.3572 21.2164 12.7161 19.6401 14.0799 18.068C15.2148 16.7598 16.3107 15.3322 17.53 14.0751C18.4443 11.7138 20.0612 9.68986 22.1622 8.2766C26.4365 5.40368 34.9753 4.40039 37.2056 10.4227C37.2373 10.499 37.2523 10.5811 37.2494 10.6637C37.2466 10.7462 37.226 10.8271 37.1892 10.901C40.048 13.6745 41.0897 18.3213 40.1452 22.1058C39.4232 24.9991 37.4937 27.172 35.4092 29.2087C33.7082 30.8707 31.6908 32.6604 29.1671 32.6658C27.5585 32.6691 26.1499 31.942 24.9069 30.9755C24.9185 31.3816 24.8577 31.8 24.8388 32.2534C24.8032 33.2973 24.8299 34.3424 24.9187 35.3831C25.0827 37.4873 25.4154 39.5795 25.6964 41.6702C25.8125 42.5334 24.3047 42.532 24.1844 41.6702C23.8818 39.5008 23.5309 37.3285 23.3774 35.1419C23.2798 33.7526 22.9463 31.3266 23.9014 30.1184C23.8681 30.0877 23.8342 30.0574 23.8012 30.0266C23.4042 30.9208 22.7161 31.6542 21.8489 32.1073C21.725 32.2249 21.6028 32.3428 21.4883 32.4632C20.762 33.227 20.0639 34.0166 19.4075 34.8414C18.0365 36.5779 16.8367 38.4429 15.8248 40.4104C15.7512 40.5414 15.6348 40.643 15.4951 40.6982C15.3554 40.7534 15.2009 40.7589 15.0577 40.7136C14.4455 40.5531 13.8417 40.3679 13.2465 40.1579C13.7993 41.7442 13.2618 44.0206 12.8853 45.5559C12.9295 46.2874 11.1942 46.6278 11.3992 45.3999C11.5793 44.3213 11.8481 43.2634 11.96 42.1725C12.0433 41.3602 11.9239 40.5141 12.1196 39.7248C10.8423 39.2009 9.61787 38.5561 8.4631 37.7994C7.93664 37.453 7.42534 37.0825 6.92882 36.6934C7.09249 37.9653 6.87989 39.467 6.81886 40.4925C6.694 42.5902 6.41431 44.6742 6.13456 46.7556C6.01195 47.6681 4.41225 47.6577 4.54289 46.7556C4.84425 44.6747 5.14565 42.5913 5.29229 40.4925C5.3624 39.4888 5.39347 38.4854 5.38 37.4794C5.37004 36.7347 5.26765 36.0953 5.46995 35.4407C5.12972 35.1219 4.79676 34.7955 4.47827 34.4546C4.12886 34.0808 3.73061 33.4329 3.26205 33.127C3.24232 33.146 3.22359 33.1665 3.20377 33.1854C2.70076 33.6658 1.69152 32.9668 2.09146 32.3475ZM27.7628 31.137C30.1391 31.8883 32.2112 30.3072 33.8343 28.7576C35.6062 27.0659 37.4551 25.2287 38.3803 22.9161C40.2186 18.3213 38.3522 13.4773 34.9034 10.2511C34.8432 10.2005 34.7979 10.1343 34.7725 10.0598C34.747 9.98528 34.7424 9.90524 34.7591 9.82829C34.7757 9.75134 34.8131 9.68039 34.8671 9.62309C34.9211 9.5658 34.9897 9.52432 35.0655 9.50313C32.3809 6.47773 27.1882 7.10523 23.853 8.97298C21.9719 10.0282 20.4255 11.5912 19.3906 13.4835C19.425 13.5543 19.4397 13.6332 19.433 13.7116C19.4264 13.7901 19.3985 13.8653 19.3526 13.9292C19.1943 14.1643 19.0277 14.3946 18.8573 14.6226C18.0698 16.5465 17.9417 18.677 18.4931 20.6814C19.1785 23.1271 20.8801 25.1356 22.5757 26.9569C24.041 28.531 25.6422 30.4665 27.7628 31.137ZM5.30456 33.2671C6.20173 34.2488 7.19036 35.1429 8.25711 35.9371C10.2329 37.3921 12.4433 38.4978 14.7924 39.2064C15.7812 37.3853 16.9259 35.6532 18.2136 34.0297C18.9186 33.1407 19.6702 32.2896 20.4651 31.4799C21.1048 30.8311 21.7037 30.1147 22.543 29.773C22.71 29.6107 22.8857 29.4577 23.0693 29.3145C23.0046 29.2493 22.9393 29.1841 22.8757 29.1192C21.0741 27.2817 19.2265 25.3482 18.0278 23.0464C18.0251 23.3527 18.0252 23.6561 18.0303 23.9551C18.0754 26.6122 18.0871 29.2697 18.108 31.927C18.1151 32.819 16.5786 32.8207 16.5715 31.927C16.5506 29.2697 16.5205 26.6125 16.5238 23.9551C16.5264 21.8504 16.2866 19.5459 16.5132 17.4111C16.2068 17.7577 15.9017 18.1041 15.6056 18.4533C14.2025 20.1079 12.8048 21.767 11.4124 23.4308C10.0759 25.0276 8.73967 26.6246 7.40358 28.2218C6.34762 29.4856 5.34164 30.8709 4.22953 32.1158C4.6113 32.477 4.97033 32.8615 5.30456 33.2671Z"/>
<path d="M26.0024 18.872C26.0024 19.6225 25.2606 20.1665 24.3456 20.0871C23.4305 20.0077 22.6886 19.3349 22.6886 18.5844C22.6886 17.8338 23.5481 17.8285 24.3456 17.5296C25.1085 17.2435 26.0024 18.1214 26.0024 18.872Z"/>
<path d="M26.2694 26.4313C26.3623 26.6222 26.4918 26.7929 26.6507 26.9337C26.8096 27.0745 26.9947 27.1827 27.1954 27.2519C27.3961 27.3211 27.6085 27.3501 27.8204 27.3371C28.0323 27.3242 28.2395 27.2697 28.4303 27.1766C28.6211 27.0835 28.7917 26.9537 28.9323 26.7946C29.0729 26.6356 29.1808 26.4504 29.2498 26.2496C29.3188 26.0488 29.3475 25.8364 29.3343 25.6245C29.3211 25.4126 29.2663 25.2054 29.173 25.0147C28.7818 24.2129 28.1416 24.8118 27.251 24.7594C26.3989 24.7092 25.8782 25.6295 26.2694 26.4313Z"/>
</svg>
