<svg width="42" height="54" viewBox="0 0 42 54" xmlns="http://www.w3.org/2000/svg">
<g clip-path="url(#clip0_1060_38)">
<path d="M4.22939 33.016C5.56206 32.0481 6.74355 30.8877 7.7352 29.5727C8.56528 28.4431 9.83275 26.7597 9.91623 25.3304C9.91833 25.2611 9.93507 25.1931 9.96538 25.1307C9.99569 25.0683 10.0389 25.0131 10.0921 24.9686C10.0119 23.8416 9.93954 22.7077 9.94473 21.5876C8.87349 19.0261 8.61404 16.1976 9.20137 13.4839C10.3979 7.96503 16.3864 0.684287 22.7253 3.751C22.8083 3.78721 22.8825 3.84082 22.943 3.90822C23.0035 3.97562 23.0487 4.05522 23.0757 4.14164C27.4432 4.16232 31.7972 7.04459 33.9259 10.7543C35.5533 13.5903 35.6788 16.7741 35.5782 19.9682C35.5638 21.1875 35.4438 22.4034 35.2193 23.602C36.2153 23.39 37.1922 23.0968 38.1403 22.7256C39.2049 22.3629 40.3294 21.7364 41.4603 21.8591C41.9027 21.9071 42.1918 22.3271 41.8493 22.6947C40.9089 23.7041 39.0651 23.9445 37.7819 24.3432C36.7885 24.6518 35.8214 25.0509 34.8396 24.9565C34.5142 25.8951 33.977 26.7462 33.2698 27.4439C31.6087 29.047 29.2678 29.4023 27.0223 29.4342C27.3878 30.4428 27.401 31.5455 27.0596 32.5626C27.051 32.7497 27.044 32.9357 27.045 33.118C27.0511 34.2736 27.099 35.4283 27.2067 36.5791C27.4422 38.9936 27.9107 41.3797 28.6055 43.704C28.6468 43.8635 28.632 44.0323 28.5635 44.1821C28.495 44.3319 28.377 44.4535 28.2294 44.5266C27.6728 44.8372 27.1061 45.126 26.5291 45.3928C27.0754 46.5583 27.08 48.0103 27.1681 49.2676C27.3023 50.954 27.3083 52.6482 27.1861 54.3356C27.1193 55.1458 25.7471 55.166 25.7701 54.3356C25.8147 52.7314 25.8706 51.1382 25.7853 49.534C25.7214 48.3345 25.4161 47.0496 25.5089 45.8394C23.9919 46.4647 22.4144 46.9317 20.8015 47.233C19.5808 47.4607 18.3447 47.5959 17.1036 47.6373C16.7218 47.6496 16.3401 47.6499 15.9584 47.6434C16.2037 48.2273 16.2149 48.9653 16.3061 49.6016C16.5407 51.1683 16.6392 52.7523 16.6007 54.336C16.5738 55.2149 15.08 55.2194 15.084 54.336C15.1127 52.8426 15.0491 51.3488 14.8935 49.8632C14.8016 49.0929 14.4736 48.2767 14.6108 47.5623C14.1267 47.4651 13.6308 47.4409 13.1395 47.4906C13.1384 47.5206 13.1392 47.551 13.1379 47.5811C13.1052 48.343 11.7762 48.5572 11.6218 47.7637C11.2143 45.6687 11.2231 43.4477 11.0761 41.3199C10.9416 39.3742 10.8158 37.428 10.6987 35.4813C9.87729 36.2763 9.05541 37.0709 8.23305 37.8649C7.57053 38.5015 6.99183 39.07 6.07041 39.2777C5.12702 39.4903 4.6667 38.2071 5.65112 37.9241C6.52996 37.6714 7.26421 36.6988 7.90147 36.084L9.05916 34.9671C7.64537 34.5597 6.19973 34.2723 4.73762 34.108C4.25103 34.0536 3.66933 33.4334 4.22939 33.016ZM11.7497 26.5111C11.8976 28.8853 12.0531 31.2591 12.2163 33.6323C12.3729 35.9102 12.5298 38.188 12.687 40.4658C12.8124 42.2674 13.0696 44.1269 13.1362 45.9561C13.7124 45.9516 14.2884 45.9828 14.8608 46.0495C16.316 46.144 17.7769 46.0997 19.2237 45.9171C21.8912 45.5663 24.4789 44.7611 26.8745 43.5365C26.2726 41.3455 25.8616 39.1064 25.6461 36.8445C25.5281 35.6059 25.4756 34.362 25.4889 33.118C25.5018 32.119 25.4309 31.0976 25.8348 30.1897C25.8436 29.9345 25.8662 29.6801 25.9026 29.4274C25.8019 29.425 25.7008 29.423 25.6012 29.42C22.4476 29.3262 19.1566 29.1843 16.2088 27.9485C14.4209 27.1978 12.8533 26.0046 11.6538 24.4811C11.6815 25.1613 11.7079 25.8399 11.7497 26.5111ZM10.9662 19.7063C11.0473 19.7361 11.1188 19.7873 11.1731 19.8544C11.2274 19.9215 11.2626 20.0021 11.2748 20.0876C11.3283 20.3937 11.3715 20.7023 11.41 21.0121C12.2492 23.1314 13.7666 24.9131 15.7254 26.0789C18.1254 27.4917 20.9968 27.7868 23.7211 27.9385C26.0755 28.0696 28.8121 28.3833 30.998 27.3022C33.4475 26.0907 33.8845 23.2663 33.9903 20.808C34.1059 18.1244 34.1718 15.2671 33.1462 12.7358C31.1086 7.70642 25.9527 5.2948 20.7749 5.36449C20.6887 5.3702 20.6026 5.35231 20.5259 5.31273C20.4492 5.27315 20.3847 5.2134 20.3394 5.13989C20.2942 5.06638 20.2698 4.98192 20.269 4.89559C20.2681 4.80926 20.2908 4.72434 20.3347 4.64997C15.9135 4.29782 12.285 8.7392 11.0672 12.7498C10.3817 15.0133 10.3467 17.4239 10.9662 19.7063ZM10.6067 33.9458C10.4991 32.0574 10.3969 30.1686 10.3002 28.2795C9.99993 28.7479 9.69455 29.1632 9.49332 29.453C8.59108 30.7484 7.54044 31.9337 6.36278 32.985C7.80412 33.1732 9.22488 33.4949 10.6067 33.9458Z"/>
<path d="M26.8745 15.3899C26.8745 16.3681 27.6675 16.1829 28.6458 16.1829C29.1155 16.1829 29.566 15.9963 29.8982 15.6641C30.2304 15.3319 30.417 14.8814 30.417 14.4116C30.417 13.4334 29.4982 13.7158 28.6458 13.236C27.8302 12.7768 26.8745 14.4116 26.8745 15.3899Z"/>
<path d="M22.2896 17.0385C22.2896 17.8614 21.5088 18.5296 20.6579 17.9908C18.656 16.7231 18.656 17.5461 18.656 16.7231C18.656 15.9002 19.5984 15.0046 20.4728 14.6767C21.3094 14.3631 22.2896 16.2155 22.2896 17.0385Z"/>
</g>
<defs>
<clipPath id="clip0_1060_38">
<rect width="42" height="54" />
</clipPath>
</defs>
</svg>
