<svg width="63" height="40" viewBox="0 0 63 40" xmlns="http://www.w3.org/2000/svg">
<path d="M60.2806 8.28041C60.2078 8.21273 60.1214 8.16148 60.027 8.13014C59.9327 8.09879 59.8328 8.08809 59.734 8.09874C57.8006 3.71183 52.9928 0.591427 48.3267 0.0733329C44.7595 -0.322753 41.4999 0.945144 38.3291 2.4451C35.7416 3.66905 32.8776 5.19661 31.8154 8.04231C30.9292 10.4163 31.5966 12.928 32.5478 15.2022C31.3725 15.276 30.2569 15.7456 29.3826 16.5345C29.1981 16.6252 29.0139 16.7136 28.83 16.7925C27.6642 17.2924 26.4809 17.7498 25.2755 18.1454C22.742 18.9657 20.1352 19.539 17.4914 19.8574C17.3128 19.8857 17.1494 19.9746 17.0287 20.1091C16.9079 20.2436 16.8371 20.4156 16.8282 20.5962C16.6615 22.2764 16.6503 23.9684 16.7949 25.6506C16.7355 25.586 16.6765 25.5227 16.6157 25.4553C15.8933 24.6345 15.0896 23.889 14.2168 23.2303C13.201 22.4812 11.9151 21.6517 11.1491 23.1253C10.0831 25.1763 9.71541 28.006 9.36128 30.2628C9.08978 32.0052 8.9241 33.7625 8.86515 35.5249C8.05015 35.3452 7.22246 35.2288 6.38949 35.1768C5.65375 35.1421 4.91452 35.1564 4.18008 35.0966C3.79492 35.0652 2.43196 34.9607 1.95976 34.6346C1.95856 34.5387 1.93669 34.4443 1.89566 34.3577C1.85462 34.271 1.79538 34.1943 1.72197 34.1326C1.58436 34.0033 1.41531 33.9123 1.23162 33.8685C1.04793 33.8248 0.855991 33.8298 0.674859 33.8832C0.492091 33.9233 0.327394 34.022 0.205755 34.1642C0.0841166 34.3064 0.0121729 34.4844 0.000824362 34.6712C-0.051303 36.1243 2.38229 36.5804 3.44734 36.715C4.42422 36.8385 5.40772 36.8161 6.38949 36.859C7.21425 36.9129 8.03291 37.037 8.83663 37.2298C8.83732 37.511 8.83934 37.7923 8.8451 38.0738C8.86664 39.1301 10.6865 39.1317 10.6649 38.0738C10.6616 37.9117 10.6646 37.75 10.663 37.588C12.8203 37.8936 15.0053 37.9542 17.1762 37.7685C18.1265 37.7027 19.215 37.7788 20.0437 37.447C19.7761 37.9947 20.1477 38.884 20.8425 38.7299C23.1297 38.2227 25.3612 37.2413 27.5674 36.4574C30.0267 35.5837 32.4814 34.6976 34.9315 33.7989C36.6798 33.1544 38.4262 32.5044 40.1706 31.8489C40.254 32.3546 40.2933 32.9264 40.3466 33.1669C40.4614 33.6844 40.579 34.2013 40.6957 34.7183C39.4196 34.701 38.149 34.889 36.9325 35.2751C35.7092 35.6727 33.998 36.2414 33.4005 37.4595C33.1413 37.9878 33.6136 38.4138 34.1448 38.3212C35.3967 38.103 36.453 37.1957 37.6811 36.8131C39.0131 36.4061 40.4098 36.2529 41.7984 36.3616C41.927 36.3697 42.0559 36.3477 42.1746 36.2974C42.2933 36.2472 42.3988 36.1701 42.4827 36.0721C42.5665 35.9742 42.6264 35.8581 42.6577 35.733C42.689 35.6079 42.6909 35.4773 42.6631 35.3514C42.3457 34.0334 42.1383 32.5757 41.6647 31.2928C41.7678 31.2541 41.8711 31.2163 41.9741 31.1776C43.4089 30.6385 44.9073 30.1496 46.367 29.5911C47.5547 31.7004 48.8882 33.7242 50.3578 35.6478C49.1756 35.837 48.0111 36.1237 46.8762 36.5051C45.0606 37.0384 42.9611 37.3969 41.3048 38.3189C41.153 38.402 41.0344 38.5349 40.969 38.6952C40.9036 38.8555 40.8954 39.0335 40.9458 39.1991C40.9962 39.3647 41.1021 39.5079 41.2457 39.6047C41.3893 39.7014 41.5619 39.7457 41.7343 39.7301C45.2304 39.4461 48.4884 37.0711 52.0447 37.2678C52.6365 37.3005 53.2608 36.5879 52.8376 36.0381C51.078 33.7517 49.5563 31.3147 47.8814 28.9734C47.8955 28.9672 47.91 28.9615 47.9241 28.9553C50.9715 28.9119 53.9321 27.9344 56.4063 26.1548C61.4373 22.5338 66.1433 13.3178 60.2806 8.28041ZM19.245 36.0446C18.3574 36.0803 17.4716 36.1513 16.584 36.1871C14.6111 36.3159 12.6299 36.219 10.679 35.8982C10.762 32.6312 11.2235 29.3848 12.0543 26.2241C12.1867 25.7246 12.6201 24.8827 12.7752 24.2206C12.8681 24.2839 12.9648 24.3413 13.0544 24.4095C13.4732 24.7035 13.8749 25.0211 14.2576 25.3607C15.2366 26.234 15.9352 27.2653 17.0781 27.8487C17.1593 28.32 17.2488 28.7903 17.3568 29.2578C17.6621 30.5863 18.0674 31.8897 18.5692 33.157C18.8387 33.8355 19.1368 34.5013 19.4635 35.1545C19.5983 35.4237 19.8019 35.7338 19.9924 36.0569C19.7128 36.0612 19.3983 36.0384 19.245 36.0446ZM42.178 29.2946C39.7235 30.1854 37.2662 31.0683 34.806 31.9433C32.4446 32.7832 30.0832 33.6227 27.7216 34.462C25.8534 35.1247 23.8691 35.6801 21.9988 36.4141C21.7509 35.8322 21.4673 35.2661 21.1495 34.7191C20.4171 33.2958 19.822 31.8059 19.3722 30.2697C18.5572 27.4312 18.2345 24.4739 18.418 21.5264C20.887 21.1728 23.3207 20.606 25.6918 19.8323C26.9901 19.4088 28.2651 18.9169 29.5114 18.3587C30.5113 17.9084 31.5704 17.5324 32.3074 16.7283C32.5604 16.6077 32.8066 16.4735 33.045 16.3263C33.0915 16.4265 33.1378 16.5274 33.1844 16.6264C34.6598 19.7595 36.2438 23.0099 38.7786 25.4358C40.3171 26.9067 42.2045 27.9619 44.2633 28.5022C43.5665 28.7721 42.8719 29.0427 42.178 29.2946ZM56.3281 23.9554C54.35 25.6365 51.939 26.7274 49.3704 27.1033C49.3049 27.0348 49.2221 26.9852 49.1307 26.9599C49.0394 26.9347 48.9429 26.9346 48.8515 26.9597C48.52 27.0399 48.1904 27.1315 47.8618 27.2284C45.3611 27.3119 42.9032 26.5647 40.8721 25.1036C38.399 23.3066 36.8446 20.5456 35.4989 17.87C34.336 15.5575 32.8218 12.9405 32.9528 10.2669C33.0995 7.27082 35.751 5.59424 38.179 4.41114C40.8297 3.11966 43.6767 1.8021 46.6737 1.72589C52.6283 1.57445 57.3134 5.708 59.5107 10.9502C59.5427 11.0394 59.5984 11.1182 59.6718 11.1781C59.7452 11.238 59.8336 11.2767 59.9274 11.2901C60.0212 11.3035 60.1169 11.291 60.2042 11.2541C60.2915 11.2171 60.367 11.157 60.4226 11.0803C62.7132 15.3762 59.8317 20.9734 56.3281 23.9554Z"/>
<path d="M48.5691 9.73242C48.4573 9.9622 48.3014 10.1677 48.1101 10.3372C47.9189 10.5066 47.6961 10.6367 47.4546 10.7201C47.213 10.8034 46.9574 10.8382 46.7024 10.8227C46.4473 10.8071 46.1979 10.7415 45.9682 10.6294C45.7386 10.5174 45.5332 10.3612 45.364 10.1697C45.1948 9.9783 45.0649 9.75537 44.9819 9.51371C44.8989 9.27205 44.8644 9.0164 44.8802 8.76138C44.8961 8.50635 44.9621 8.25694 45.0744 8.02744C45.5452 7.0624 46.3157 7.7832 47.3876 7.72009C48.4132 7.6597 49.0399 8.76737 48.5691 9.73242Z"/>
<path d="M54.902 21.4377C55.6466 20.9263 55.6809 19.8196 54.9785 18.9658C54.2762 18.1121 53.1032 17.8346 52.3586 18.346C51.6139 18.8575 52.4886 19.5117 52.7353 20.5066C52.9715 21.4584 54.1574 21.9492 54.902 21.4377Z"/>
</svg>
