<svg width="42" height="54" viewBox="0 0 42 54" xmlns="http://www.w3.org/2000/svg">
<g clip-path="url(#clip0_1060_113)">
<path d="M5.24414 30.0894C6.84604 28.7157 8.48842 27.33 9.71865 25.5978C10.7945 24.083 11.1797 22.5724 11.5087 20.8494C11.483 20.2961 11.4666 19.7437 11.4691 19.1946C10.3615 16.5461 10.0932 13.6214 10.7005 10.8156C11.9377 5.10922 18.1296 -2.41887 24.6839 0.752031C24.7697 0.789464 24.8464 0.844901 24.909 0.914589C24.9715 0.984276 25.0183 1.06659 25.0462 1.15594C29.562 1.17732 34.064 4.1575 36.265 7.99321C37.9477 10.9256 38.0774 14.2176 37.9734 17.5201C37.8885 20.215 37.6454 23.2629 35.5865 25.2498C34.5949 26.165 33.363 26.7785 32.0351 27.0186C32.4894 27.2883 32.924 27.6102 33.3997 27.8329C33.4794 27.8701 33.5502 27.9239 33.6075 27.9905C33.6648 28.0572 33.7073 28.1353 33.7321 28.2196C33.7569 28.3039 33.7636 28.3926 33.7516 28.4797C33.7396 28.5668 33.7092 28.6503 33.6625 28.7248C32.6039 29.9926 31.4032 31.1347 30.0841 32.1288C31.6032 32.8401 33.1938 33.3874 34.8289 33.7614C35.8903 34.0068 35.3744 35.3529 34.388 35.1848C32.5749 34.872 30.8276 34.255 29.2202 33.3598C29.2455 33.8054 29.2759 34.2507 29.3175 34.6954C29.561 37.1919 30.0454 39.659 30.7639 42.0623C30.8065 42.2272 30.7912 42.4017 30.7204 42.5566C30.6495 42.7115 30.5276 42.8373 30.375 42.9128C29.7938 43.2372 29.2019 43.5386 28.5992 43.8171C29.2134 45.2935 29.4084 46.9955 29.5877 48.5716C29.7786 50.2495 29.9318 51.9976 29.6201 53.666C29.4819 54.406 28.3205 54.1652 28.2505 53.501C28.0783 51.8666 28.1858 50.2126 28.0216 48.5716C27.8797 47.1536 27.5167 45.7642 27.3447 44.3548C25.8431 44.9588 24.2855 45.4131 22.6947 45.7112C21.4326 45.9467 20.1544 46.0864 18.8712 46.1292C18.5704 46.1389 18.2696 46.1406 17.9688 46.1391C18.6556 48.2983 18.4559 50.8573 18.3504 53.0555C18.3042 54.0171 16.6427 54.017 16.6917 53.0555C16.8081 50.7758 16.467 48.3701 16.7537 46.1027C16.1774 46.0619 15.3768 45.8632 14.7725 45.9775C14.7713 46.0086 14.7721 46.04 14.7707 46.0711C14.737 46.8589 13.3628 47.0804 13.2032 46.2599C12.7818 44.0937 12.7909 41.7974 12.6389 39.5972C12.5124 37.7669 12.3934 35.9362 12.2819 34.1051C11.7688 34.6927 11.2207 35.2488 10.6404 35.7701C9.58316 36.8415 8.40073 37.7816 7.11866 38.5701C6.39597 39.004 5.3104 37.9775 6.0926 37.3865C7.81311 36.0867 9.21805 34.6667 10.7547 33.179C10.6293 33.1381 10.5135 33.0723 10.4141 32.9856C9.92132 32.9695 9.26579 32.5971 8.8099 32.4397C7.7418 32.071 6.67635 31.6942 5.60965 31.3215C5.09383 31.1413 4.73977 30.522 5.24414 30.0894ZM29.1654 30.5424C29.1572 30.7204 29.1518 30.8968 29.1515 31.0707C30.1548 30.314 31.0903 29.4713 31.9475 28.5523C31.3961 28.2613 30.9594 27.7922 30.7085 27.2214C30.1823 27.2742 29.6522 27.3003 29.1268 27.3078C29.5048 28.3506 29.5184 29.4908 29.1654 30.5424ZM13.3354 24.2854C13.4883 26.7402 13.6491 29.1946 13.8178 31.6484C13.9798 34.0037 14.142 36.3589 14.3045 38.7142C14.4342 40.5769 14.7001 42.4995 14.769 44.3909C15.3648 44.3863 15.9604 44.4185 16.5522 44.4875C18.0569 44.5852 19.5674 44.5394 21.0633 44.3506C23.8214 43.9879 26.4971 43.1553 28.9741 41.8891C28.3517 39.6236 27.9267 37.3085 27.7039 34.9697C27.5819 33.6891 27.5276 32.403 27.5414 31.1166C27.5546 30.0838 27.4814 29.0276 27.899 28.0889C27.9081 27.8251 27.9315 27.5619 27.9691 27.3007C27.865 27.2982 27.7605 27.2961 27.6574 27.2931C24.3968 27.1961 20.9939 27.0493 17.9459 25.7715C16.0973 24.9954 14.4765 23.7616 13.2362 22.1864C13.2649 22.8897 13.2922 23.5913 13.3354 24.2854ZM12.5253 17.2494C12.6091 17.2802 12.683 17.3331 12.7392 17.4025C12.7954 17.4719 12.8317 17.5552 12.8444 17.6436C12.8997 17.9601 12.9443 18.2792 12.9842 18.5995C13.8518 20.7908 15.4208 22.6331 17.4462 23.8384C19.9277 25.2993 22.8967 25.6044 25.7135 25.7612C28.1479 25.8968 30.9774 26.2211 33.2376 25.1033C35.7703 23.8507 36.2221 20.9303 36.3316 18.3885C36.451 15.6137 36.5192 12.6594 35.4588 10.0421C33.3519 4.84182 28.0208 2.34827 22.6671 2.42033C22.5781 2.42624 22.4891 2.40774 22.4097 2.36681C22.3304 2.32589 22.2637 2.2641 22.2169 2.1881C22.1701 2.1121 22.1449 2.02476 22.144 1.9355C22.1432 1.84624 22.1667 1.75843 22.212 1.68154C17.6407 1.31742 13.8888 5.90968 12.6297 10.0566C11.9209 12.3969 11.8847 14.8895 12.5253 17.2494ZM10.8781 31.4877C11.3131 31.6056 11.7387 31.7556 12.1516 31.9362C12.0232 29.6808 11.9011 27.4251 11.7855 25.1691L11.7851 25.1619C10.6621 27.123 8.88871 28.8795 7.32037 30.3143C8.50764 30.7013 9.69451 31.0895 10.8781 31.4877Z"/>
<path d="M28.8392 12.9675C28.8392 13.4532 29.0321 13.919 29.3756 14.2625C29.719 14.6059 30.1848 14.7989 30.6706 14.7989C31.1563 14.7989 31.6221 14.6059 31.9655 14.2625C32.309 13.919 32.502 13.4532 32.502 12.9675C32.502 11.956 31.552 12.248 30.6706 11.7519C29.8272 11.2771 28.8392 11.956 28.8392 12.9675Z"/>
<path d="M23.6709 14.5983C23.6709 15.4492 22.8299 16.066 21.7924 15.976C20.7549 15.886 19.9139 15.1232 19.9139 14.2722C19.9139 13.4213 20.8883 13.4153 21.7924 13.0764C22.6574 12.7521 23.6709 13.7474 23.6709 14.5983Z"/>
</g>
<defs>
<clipPath id="clip0_1060_113">
<rect width="42" height="54"/>
</clipPath>
</defs>
</svg>
