<svg width="47" height="46" viewBox="0 0 47 46" fill="none" xmlns="http://www.w3.org/2000/svg">
<path d="M17.5625 20.625C17.2476 20.625 16.9455 20.7501 16.7228 20.9728C16.5001 21.1955 16.375 21.4976 16.375 21.8125C16.375 22.1274 16.5001 22.4295 16.7228 22.6522C16.9455 22.8749 17.2476 23 17.5625 23H29.4375C29.7524 23 30.0545 22.8749 30.2772 22.6522C30.4999 22.4295 30.625 22.1274 30.625 21.8125C30.625 21.4976 30.4999 21.1955 30.2772 20.9728C30.0545 20.7501 29.7524 20.625 29.4375 20.625H17.5625ZM16.375 26.5625C16.375 26.2476 16.5001 25.9455 16.7228 25.7228C16.9455 25.5001 17.2476 25.375 17.5625 25.375H29.4375C29.7524 25.375 30.0545 25.5001 30.2772 25.7228C30.4999 25.9455 30.625 26.2476 30.625 26.5625C30.625 26.8774 30.4999 27.1795 30.2772 27.4022C30.0545 27.6249 29.7524 27.75 29.4375 27.75H17.5625C17.2476 27.75 16.9455 27.6249 16.7228 27.4022C16.5001 27.1795 16.375 26.8774 16.375 26.5625ZM16.375 31.3125C16.375 30.9976 16.5001 30.6955 16.7228 30.4728C16.9455 30.2501 17.2476 30.125 17.5625 30.125H22.3125C22.6274 30.125 22.9295 30.2501 23.1522 30.4728C23.3749 30.6955 23.5 30.9976 23.5 31.3125C23.5 31.6274 23.3749 31.9295 23.1522 32.1522C22.9295 32.3749 22.6274 32.5 22.3125 32.5H17.5625C17.2476 32.5 16.9455 32.3749 16.7228 32.1522C16.5001 31.9295 16.375 31.6274 16.375 31.3125Z" fill="#595959"/>
<path d="M27.0625 4H14C12.7402 4 11.532 4.50045 10.6412 5.39124C9.75044 6.28204 9.25 7.49022 9.25 8.75V37.25C9.25 38.5098 9.75044 39.718 10.6412 40.6088C11.532 41.4996 12.7402 42 14 42H33C34.2598 42 35.468 41.4996 36.3588 40.6088C37.2496 39.718 37.75 38.5098 37.75 37.25V14.6875L27.0625 4ZM27.0625 6.375V11.125C27.0625 12.0698 27.4378 12.976 28.1059 13.6441C28.774 14.3122 29.6802 14.6875 30.625 14.6875H35.375V37.25C35.375 37.8799 35.1248 38.484 34.6794 38.9294C34.234 39.3748 33.6299 39.625 33 39.625H14C13.3701 39.625 12.766 39.3748 12.3206 38.9294C11.8752 38.484 11.625 37.8799 11.625 37.25V8.75C11.625 8.12011 11.8752 7.51602 12.3206 7.07062C12.766 6.62522 13.3701 6.375 14 6.375H27.0625Z" fill="#595959"/>
</svg>
