<svg width="39" height="39" viewBox="0 0 39 39" fill="none" xmlns="http://www.w3.org/2000/svg">
<path d="M19.5 2.84375C20.849 2.84366 22.1468 3.35978 23.1274 4.28622C24.1079 5.21266 24.6968 6.47919 24.7731 7.826L24.7813 8.125H33.3125C33.6213 8.12509 33.9185 8.2424 34.1442 8.45321C34.3698 8.66401 34.507 8.95261 34.528 9.26068C34.5491 9.56875 34.4524 9.87332 34.2575 10.1129C34.0627 10.3524 33.7842 10.509 33.4783 10.5511L33.3125 10.5625H32.019L29.939 31.72C29.8348 32.7748 29.359 33.7582 28.5967 34.4946C27.8344 35.2311 26.8351 35.6725 25.7774 35.7402L25.4914 35.75H13.5086C12.4482 35.75 11.4224 35.3729 10.6145 34.6861C9.80658 33.9993 9.26919 33.0477 9.09838 32.0011L9.061 31.7184L6.97938 10.5625H5.6875C5.39299 10.5625 5.10844 10.4558 4.88649 10.2623C4.66453 10.0687 4.52018 9.80128 4.48012 9.5095L4.46875 9.34375C4.46876 9.04924 4.57542 8.76469 4.769 8.54274C4.96257 8.32078 5.22998 8.17643 5.52175 8.13637L5.6875 8.125H14.2188C14.2188 6.72433 14.7752 5.38102 15.7656 4.39059C16.756 3.40017 18.0993 2.84375 19.5 2.84375ZM29.5701 10.5625H9.42825L11.4871 31.4795C11.5327 31.9462 11.7384 32.3828 12.0692 32.7151C12.4001 33.0475 12.8357 33.2551 13.3023 33.3027L13.5086 33.3125H25.4914C26.4664 33.3125 27.2935 32.6219 27.482 31.6842L27.5145 31.4795L29.5685 10.5625H29.5701ZM22.3438 15.0312C22.6383 15.0313 22.9228 15.1379 23.1448 15.3315C23.3667 15.5251 23.5111 15.7925 23.5511 16.0842L23.5625 16.25V27.625C23.5624 27.9338 23.4451 28.231 23.2343 28.4567C23.0235 28.6823 22.7349 28.8195 22.4268 28.8405C22.1188 28.8616 21.8142 28.7649 21.5746 28.57C21.3351 28.3752 21.1785 28.0967 21.1364 27.7907L21.125 27.625V16.25C21.125 15.9268 21.2534 15.6168 21.482 15.3882C21.7105 15.1597 22.0205 15.0312 22.3438 15.0312ZM16.6563 15.0312C16.9508 15.0313 17.2353 15.1379 17.4573 15.3315C17.6792 15.5251 17.8236 15.7925 17.8636 16.0842L17.875 16.25V27.625C17.8749 27.9338 17.7576 28.231 17.5468 28.4567C17.336 28.6823 17.0474 28.8195 16.7393 28.8405C16.4313 28.8616 16.1267 28.7649 15.8871 28.57C15.6476 28.3752 15.491 28.0967 15.4489 27.7907L15.4375 27.625V16.25C15.4375 15.9268 15.5659 15.6168 15.7945 15.3882C16.023 15.1597 16.333 15.0312 16.6563 15.0312ZM19.5 5.28125C18.7863 5.28128 18.0987 5.54965 17.5737 6.0331C17.0487 6.51656 16.7247 7.17974 16.666 7.891L16.6563 8.125H22.3438C22.3438 7.37079 22.0441 6.64747 21.5108 6.11417C20.9775 5.58086 20.2542 5.28125 19.5 5.28125Z" fill="#595959"/>
</svg>
