<svg width="37" height="37" viewBox="0 0 37 37" fill="none" xmlns="http://www.w3.org/2000/svg">
<path d="M31.6871 5.5227C31.6661 5.50172 31.6451 5.48068 31.6241 5.48068C28.2644 2.09985 23.6236 0 18.4999 0C8.29453 0 0 8.29453 0 18.4999C0 28.7053 8.29453 36.9999 18.4999 36.9999C28.7053 36.9999 36.9999 28.7053 36.9999 18.4999C36.9999 13.4812 34.984 8.9245 31.7502 5.58569C31.7291 5.56465 31.7081 5.54367 31.6871 5.5227ZM2.51985 18.4999C2.51985 9.68045 9.68045 2.51985 18.4999 2.51985C22.5106 2.51985 26.1644 4.01079 28.9783 6.44659L6.44659 28.9783C4.01079 26.1644 2.51985 22.5106 2.51985 18.4999ZM18.4999 34.4799C14.5942 34.4799 11.0243 33.073 8.23154 30.7422L30.7422 8.23154C33.073 11.0034 34.4799 14.5942 34.4799 18.4999C34.4799 27.3194 27.3194 34.4799 18.4999 34.4799Z" fill="#D84E32"/>
</svg>
