<svg width="36" height="36" viewBox="0 0 36 36" fill="none" xmlns="http://www.w3.org/2000/svg">
<g clip-path="url(#clip0_274_5029)">
<path d="M18 33.75C13.8228 33.75 9.81677 32.0906 6.86307 29.1369C3.90937 26.1832 2.25 22.1772 2.25 18C2.25 13.8228 3.90937 9.81677 6.86307 6.86307C9.81677 3.90937 13.8228 2.25 18 2.25C22.1772 2.25 26.1832 3.90937 29.1369 6.86307C32.0906 9.81677 33.75 13.8228 33.75 18C33.75 22.1772 32.0906 26.1832 29.1369 29.1369C26.1832 32.0906 22.1772 33.75 18 33.75ZM18 36C22.7739 36 27.3523 34.1036 30.7279 30.7279C34.1036 27.3523 36 22.7739 36 18C36 13.2261 34.1036 8.64773 30.7279 5.27208C27.3523 1.89642 22.7739 0 18 0C13.2261 0 8.64773 1.89642 5.27208 5.27208C1.89642 8.64773 0 13.2261 0 18C0 22.7739 1.89642 27.3523 5.27208 30.7279C8.64773 34.1036 13.2261 36 18 36Z" fill="#278E37"/>
<path d="M24.6825 11.1825C24.6665 11.198 24.6514 11.2146 24.6375 11.232L16.8232 21.1882L12.114 16.4767C11.7941 16.1787 11.371 16.0164 10.9338 16.0241C10.4966 16.0318 10.0795 16.2089 9.77035 16.5181C9.46117 16.8273 9.28407 17.2444 9.27636 17.6816C9.26864 18.1188 9.43092 18.5419 9.729 18.8617L15.6825 24.8175C15.8429 24.9776 16.0339 25.1037 16.2441 25.1884C16.4543 25.2731 16.6794 25.3146 16.9059 25.3104C17.1325 25.3062 17.3559 25.2564 17.5628 25.164C17.7697 25.0716 17.9559 24.9384 18.1102 24.7725L27.0922 13.545C27.3981 13.224 27.5653 12.7955 27.5578 12.3522C27.5502 11.9089 27.3685 11.4864 27.0519 11.176C26.7353 10.8656 26.3092 10.6922 25.8658 10.6935C25.4225 10.6947 24.9974 10.8704 24.6825 11.1825Z" fill="#278E37"/>
</g>
<defs>
<clipPath id="clip0_274_5029">
<rect width="36" height="36" fill="white"/>
</clipPath>
</defs>
</svg>
