<svg width="27" height="27" viewBox="0 0 27 27" fill="none" xmlns="http://www.w3.org/2000/svg">
<g clip-path="url(#clip0_342_4870)">
<path d="M13.7501 24.8438C10.6752 24.8438 7.72626 23.6224 5.552 21.4481C3.37774 19.2738 2.15626 16.3249 2.15626 13.2501C2.15626 10.1752 3.37774 7.22626 5.552 5.052C7.72626 2.87774 10.6752 1.65626 13.7501 1.65626C16.8249 1.65626 19.7738 2.87774 21.9481 5.052C24.1224 7.22626 25.3438 10.1752 25.3438 13.2501C25.3438 16.3249 24.1224 19.2738 21.9481 21.4481C19.7738 23.6224 16.8249 24.8438 13.7501 24.8438ZM13.7501 26.5001C17.2642 26.5001 20.6344 25.1041 23.1193 22.6193C25.6041 20.1344 27.0001 16.7642 27.0001 13.2501C27.0001 9.73592 25.6041 6.36572 23.1193 3.88085C20.6344 1.39598 17.2642 0 13.7501 0C10.2359 0 6.86572 1.39598 4.38085 3.88085C1.89598 6.36572 0.5 9.73592 0.5 13.2501C0.5 16.7642 1.89598 20.1344 4.38085 22.6193C6.86572 25.1041 10.2359 26.5001 13.7501 26.5001Z" fill="#B4B4B4"/>
<path d="M7.59715 20.5922C7.78735 20.702 8.01338 20.7318 8.22553 20.675C8.43767 20.6181 8.61855 20.4793 8.72837 20.2891C9.23702 19.4075 9.96899 18.6753 10.8506 18.1665C11.7322 17.6577 12.7322 17.3901 13.7501 17.3907C15.895 17.3907 17.7682 18.555 18.7719 20.2891C18.8825 20.4778 19.0632 20.615 19.2746 20.6709C19.4861 20.7268 19.711 20.6968 19.9004 20.5875C20.0898 20.4781 20.2282 20.2983 20.2855 20.0873C20.3428 19.8763 20.3143 19.6511 20.2062 19.461C19.5522 18.3275 18.6112 17.3864 17.4778 16.7322C16.3444 16.078 15.0588 15.7338 13.7501 15.7344C12.4416 15.7342 11.156 16.0784 10.0227 16.7326C8.88943 17.3868 7.94833 18.3278 7.29405 19.461C7.18424 19.6512 7.15448 19.8772 7.21132 20.0894C7.26816 20.3015 7.40695 20.4824 7.59715 20.5922ZM12.0939 10.7657C12.0939 12.137 11.3519 13.2501 10.4376 13.2501C9.52337 13.2501 8.78137 12.137 8.78137 10.7657C8.78137 9.39429 9.52337 8.28128 10.4376 8.28128C11.3519 8.28128 12.0939 9.39429 12.0939 10.7657ZM18.7189 10.7657C18.7189 12.137 17.9769 13.2501 17.0627 13.2501C16.1484 13.2501 15.4064 12.137 15.4064 10.7657C15.4064 9.39429 16.1484 8.28128 17.0627 8.28128C17.9769 8.28128 18.7189 9.39429 18.7189 10.7657Z" fill="#B4B4B4"/>
</g>
<defs>
<clipPath id="clip0_342_4870">
<rect width="26.5" height="26.5" fill="white" transform="translate(0.5)"/>
</clipPath>
</defs>
</svg>
