<svg width="28" height="27" viewBox="0 0 28 27" fill="none" xmlns="http://www.w3.org/2000/svg">
<g clip-path="url(#clip0_211_1344)">
    <path d="M14 3.375C11.7729 3.38198 9.62175 4.18523 7.93513 5.63963C6.6425 6.75338 5.70594 8.20462 5.46462 9.66094C2.63637 10.2853 0.5 12.7491 0.5 15.7241C0.5 19.1801 3.38225 21.9375 6.88044 21.9375H21.9093C24.9721 21.9375 27.5 19.5244 27.5 16.4919C27.5 13.7312 25.4041 11.4817 22.7176 11.1021C22.3076 6.74831 18.5394 3.375 14 3.375ZM17.9724 12.0589C18.0508 12.1373 18.1131 12.2305 18.1555 12.333C18.198 12.4355 18.2198 12.5453 18.2198 12.6562C18.2198 12.7672 18.198 12.877 18.1555 12.9795C18.1131 13.082 18.0508 13.1752 17.9724 13.2536C17.8939 13.3321 17.8008 13.3943 17.6983 13.4368C17.5958 13.4792 17.4859 13.5011 17.375 13.5011C17.2641 13.5011 17.1542 13.4792 17.0517 13.4368C16.9492 13.3943 16.8561 13.3321 16.7776 13.2536L14.8438 11.3181V17.7188C14.8438 17.9425 14.7549 18.1571 14.5966 18.3154C14.4384 18.4736 14.2238 18.5625 14 18.5625C13.7762 18.5625 13.5616 18.4736 13.4034 18.3154C13.2451 18.1571 13.1562 17.9425 13.1562 17.7188V11.3181L11.2224 13.2536C11.0639 13.4121 10.8491 13.5011 10.625 13.5011C10.4009 13.5011 10.1861 13.4121 10.0276 13.2536C9.86919 13.0952 9.78018 12.8803 9.78018 12.6562C9.78018 12.4322 9.86919 12.2173 10.0276 12.0589L13.4026 8.68388C13.481 8.6053 13.5741 8.54296 13.6766 8.50042C13.7791 8.45789 13.889 8.43599 14 8.43599C14.111 8.43599 14.2209 8.45789 14.3234 8.50042C14.4259 8.54296 14.519 8.6053 14.5974 8.68388L17.9724 12.0589Z" fill="currentColor" />
</g>
<defs>
<clipPath id="clip0_211_1344">
<rect width="27" height="27" fill="white" transform="translate(0.5)"/>
</clipPath>
</defs>
</svg>
