<svg xmlns="http://www.w3.org/2000/svg" width="16" height="16" focusable="false" viewBox="0 0 16 16">
    <g transform="translate(-464 -332)">
        <rect width="16" height="16" transform="translate(464 332)" fill="none" />
        <path d="M3,1V12.273M11.052,1V12.273M3,6.636h8.052" transform="translate(462 333.5)" fill="none" stroke="currentColor" stroke-linecap="round" stroke-width="2" />
        <path fill="currentColor" d="M15.375,4A.658.658,0,0,1,16,4.688a3.531,3.531,0,0,1-.744,1.665l-.3.44-.171.238-.384.514-.438.568-.136.168.145.043a2.839,2.839,0,0,1,1.95,2.5l.031.225.015.151.021.294.01.334,0,.424a3.323,3.323,0,0,1-.3,1.339A2.286,2.286,0,0,1,13.5,15c-1.6,0-2.5-1-2.5-2.75a.628.628,0,1,1,1.25,0c0,1,.345,1.375,1.25,1.375a1.053,1.053,0,0,0,1.081-.652,1.9,1.9,0,0,0,.169-.723l0-.378-.015-.415-.021-.238c-.134-1.172-.653-1.719-2.149-1.719a.625.625,0,0,1-.571-.407.741.741,0,0,1,.106-.739l.494-.61.446-.564.4-.518.347-.465.3-.41.282-.411H11.625a.645.645,0,0,1-.615-.564L11,4.688a.673.673,0,0,1,.512-.676L11.625,4Z" transform="translate(464.001 331)" />
    </g>
</svg>